<mxfile host="app.diagrams.net" modified="2024-02-01T17:44:23.794Z" agent="Mozilla/5.0 (Macintosh; Intel Mac OS X 10.15; rv:122.0) Gecko/20100101 Firefox/122.0" etag="hPpHwguD9iiUJftJSnek" version="23.1.1" type="device">
  <diagram name="Page-1" id="SEn7KszP2j8_uQ7gbDBw">
    <mxGraphModel dx="1498" dy="662" grid="1" gridSize="10" guides="1" tooltips="1" connect="1" arrows="1" fold="1" page="1" pageScale="1" pageWidth="850" pageHeight="1100" math="0" shadow="0">
      <root>
        <mxCell id="0" />
        <mxCell id="1" parent="0" />
        <mxCell id="3n6C1vs2EIXXNCvUCeNO-1" value="&lt;font style=&quot;font-size: 38px;&quot;&gt;f&lt;/font&gt;" style="rounded=0;whiteSpace=wrap;html=1;" vertex="1" parent="1">
          <mxGeometry x="160" y="200" width="80" height="80" as="geometry" />
        </mxCell>
        <mxCell id="3n6C1vs2EIXXNCvUCeNO-2" value="&lt;font style=&quot;font-size: 38px;&quot;&gt;f&lt;/font&gt;" style="rounded=0;whiteSpace=wrap;html=1;" vertex="1" parent="1">
          <mxGeometry x="280" y="200" width="80" height="80" as="geometry" />
        </mxCell>
        <mxCell id="3n6C1vs2EIXXNCvUCeNO-3" value="&lt;font style=&quot;font-size: 38px;&quot;&gt;f&lt;/font&gt;" style="rounded=0;whiteSpace=wrap;html=1;" vertex="1" parent="1">
          <mxGeometry x="400" y="200" width="80" height="80" as="geometry" />
        </mxCell>
        <mxCell id="3n6C1vs2EIXXNCvUCeNO-4" value="&lt;font style=&quot;font-size: 38px;&quot;&gt;f&lt;/font&gt;" style="rounded=0;whiteSpace=wrap;html=1;" vertex="1" parent="1">
          <mxGeometry x="640" y="200" width="80" height="80" as="geometry" />
        </mxCell>
        <mxCell id="3n6C1vs2EIXXNCvUCeNO-5" value="&lt;div align=&quot;center&quot;&gt;s&lt;/div&gt;&lt;div align=&quot;center&quot;&gt;t&lt;/div&gt;&lt;div align=&quot;center&quot;&gt;a&lt;/div&gt;&lt;div align=&quot;center&quot;&gt;t&lt;/div&gt;&lt;div align=&quot;center&quot;&gt;e&lt;br&gt;&lt;/div&gt;" style="rounded=0;whiteSpace=wrap;html=1;align=center;" vertex="1" parent="1">
          <mxGeometry x="100" y="190" width="20" height="100" as="geometry" />
        </mxCell>
        <mxCell id="3n6C1vs2EIXXNCvUCeNO-6" value="" style="endArrow=classic;html=1;rounded=0;exitX=1;exitY=0.5;exitDx=0;exitDy=0;entryX=0;entryY=0.5;entryDx=0;entryDy=0;" edge="1" parent="1" source="3n6C1vs2EIXXNCvUCeNO-5" target="3n6C1vs2EIXXNCvUCeNO-1">
          <mxGeometry width="50" height="50" relative="1" as="geometry">
            <mxPoint x="260" y="370" as="sourcePoint" />
            <mxPoint x="310" y="320" as="targetPoint" />
          </mxGeometry>
        </mxCell>
        <mxCell id="3n6C1vs2EIXXNCvUCeNO-7" value="" style="endArrow=classic;html=1;rounded=0;exitX=1;exitY=0.5;exitDx=0;exitDy=0;entryX=0;entryY=0.5;entryDx=0;entryDy=0;" edge="1" parent="1" source="3n6C1vs2EIXXNCvUCeNO-1" target="3n6C1vs2EIXXNCvUCeNO-2">
          <mxGeometry width="50" height="50" relative="1" as="geometry">
            <mxPoint x="130" y="250" as="sourcePoint" />
            <mxPoint x="170" y="250" as="targetPoint" />
          </mxGeometry>
        </mxCell>
        <mxCell id="3n6C1vs2EIXXNCvUCeNO-8" value="" style="endArrow=classic;html=1;rounded=0;exitX=1;exitY=0.5;exitDx=0;exitDy=0;entryX=0;entryY=0.5;entryDx=0;entryDy=0;" edge="1" parent="1" source="3n6C1vs2EIXXNCvUCeNO-2" target="3n6C1vs2EIXXNCvUCeNO-3">
          <mxGeometry width="50" height="50" relative="1" as="geometry">
            <mxPoint x="140" y="260" as="sourcePoint" />
            <mxPoint x="180" y="260" as="targetPoint" />
          </mxGeometry>
        </mxCell>
        <mxCell id="3n6C1vs2EIXXNCvUCeNO-9" value="" style="endArrow=classic;html=1;rounded=0;exitX=1;exitY=0.5;exitDx=0;exitDy=0;" edge="1" parent="1" source="3n6C1vs2EIXXNCvUCeNO-3">
          <mxGeometry width="50" height="50" relative="1" as="geometry">
            <mxPoint x="150" y="270" as="sourcePoint" />
            <mxPoint x="520" y="240" as="targetPoint" />
          </mxGeometry>
        </mxCell>
        <mxCell id="3n6C1vs2EIXXNCvUCeNO-10" value="" style="endArrow=classic;html=1;rounded=0;entryX=0;entryY=0.5;entryDx=0;entryDy=0;" edge="1" parent="1" target="3n6C1vs2EIXXNCvUCeNO-4">
          <mxGeometry width="50" height="50" relative="1" as="geometry">
            <mxPoint x="600" y="240" as="sourcePoint" />
            <mxPoint x="240" y="280" as="targetPoint" />
          </mxGeometry>
        </mxCell>
        <mxCell id="3n6C1vs2EIXXNCvUCeNO-11" value="&lt;font style=&quot;font-size: 38px;&quot;&gt;...&lt;/font&gt;" style="text;html=1;strokeColor=none;fillColor=none;align=center;verticalAlign=middle;whiteSpace=wrap;rounded=0;" vertex="1" parent="1">
          <mxGeometry x="530" y="220" width="60" height="30" as="geometry" />
        </mxCell>
        <mxCell id="3n6C1vs2EIXXNCvUCeNO-12" value="&lt;font style=&quot;font-size: 24px;&quot;&gt;pad(m) = &lt;/font&gt;" style="text;html=1;strokeColor=none;fillColor=none;align=center;verticalAlign=middle;whiteSpace=wrap;rounded=0;" vertex="1" parent="1">
          <mxGeometry x="-10" y="330" width="220" height="30" as="geometry" />
        </mxCell>
        <mxCell id="3n6C1vs2EIXXNCvUCeNO-30" value="" style="edgeStyle=orthogonalEdgeStyle;rounded=0;orthogonalLoop=1;jettySize=auto;html=1;" edge="1" parent="1" source="3n6C1vs2EIXXNCvUCeNO-13" target="3n6C1vs2EIXXNCvUCeNO-1">
          <mxGeometry relative="1" as="geometry" />
        </mxCell>
        <mxCell id="3n6C1vs2EIXXNCvUCeNO-13" value="&lt;font style=&quot;font-size: 24px;&quot;&gt;m&lt;sub&gt;1&lt;/sub&gt;&lt;/font&gt;" style="text;html=1;strokeColor=none;fillColor=none;align=center;verticalAlign=middle;whiteSpace=wrap;rounded=0;" vertex="1" parent="1">
          <mxGeometry x="170" y="330" width="60" height="30" as="geometry" />
        </mxCell>
        <mxCell id="3n6C1vs2EIXXNCvUCeNO-29" value="" style="edgeStyle=orthogonalEdgeStyle;rounded=0;orthogonalLoop=1;jettySize=auto;html=1;" edge="1" parent="1" source="3n6C1vs2EIXXNCvUCeNO-14" target="3n6C1vs2EIXXNCvUCeNO-2">
          <mxGeometry relative="1" as="geometry" />
        </mxCell>
        <mxCell id="3n6C1vs2EIXXNCvUCeNO-14" value="&lt;font style=&quot;font-size: 24px;&quot;&gt;m&lt;sub&gt;2&lt;/sub&gt;&lt;/font&gt;" style="text;html=1;strokeColor=none;fillColor=none;align=center;verticalAlign=middle;whiteSpace=wrap;rounded=0;" vertex="1" parent="1">
          <mxGeometry x="290" y="330" width="60" height="30" as="geometry" />
        </mxCell>
        <mxCell id="3n6C1vs2EIXXNCvUCeNO-31" value="" style="edgeStyle=orthogonalEdgeStyle;rounded=0;orthogonalLoop=1;jettySize=auto;html=1;" edge="1" parent="1" source="3n6C1vs2EIXXNCvUCeNO-15" target="3n6C1vs2EIXXNCvUCeNO-3">
          <mxGeometry relative="1" as="geometry" />
        </mxCell>
        <mxCell id="3n6C1vs2EIXXNCvUCeNO-15" value="&lt;font style=&quot;font-size: 24px;&quot;&gt;m&lt;sub&gt;3&lt;/sub&gt;&lt;/font&gt;" style="text;html=1;strokeColor=none;fillColor=none;align=center;verticalAlign=middle;whiteSpace=wrap;rounded=0;" vertex="1" parent="1">
          <mxGeometry x="410" y="330" width="60" height="30" as="geometry" />
        </mxCell>
        <mxCell id="3n6C1vs2EIXXNCvUCeNO-32" value="" style="edgeStyle=orthogonalEdgeStyle;rounded=0;orthogonalLoop=1;jettySize=auto;html=1;" edge="1" parent="1" source="3n6C1vs2EIXXNCvUCeNO-16" target="3n6C1vs2EIXXNCvUCeNO-4">
          <mxGeometry relative="1" as="geometry" />
        </mxCell>
        <mxCell id="3n6C1vs2EIXXNCvUCeNO-16" value="&lt;font style=&quot;font-size: 24px;&quot;&gt;m&lt;sub&gt;n&lt;/sub&gt;&lt;/font&gt;" style="text;html=1;strokeColor=none;fillColor=none;align=center;verticalAlign=middle;whiteSpace=wrap;rounded=0;" vertex="1" parent="1">
          <mxGeometry x="650" y="330" width="60" height="30" as="geometry" />
        </mxCell>
        <mxCell id="3n6C1vs2EIXXNCvUCeNO-17" value="&lt;font style=&quot;font-size: 24px;&quot;&gt;||&lt;/font&gt;" style="text;html=1;strokeColor=none;fillColor=none;align=center;verticalAlign=middle;whiteSpace=wrap;rounded=0;" vertex="1" parent="1">
          <mxGeometry x="230" y="330" width="60" height="30" as="geometry" />
        </mxCell>
        <mxCell id="3n6C1vs2EIXXNCvUCeNO-18" value="&lt;font style=&quot;font-size: 24px;&quot;&gt;||&lt;/font&gt;" style="text;html=1;strokeColor=none;fillColor=none;align=center;verticalAlign=middle;whiteSpace=wrap;rounded=0;" vertex="1" parent="1">
          <mxGeometry x="350" y="330" width="60" height="30" as="geometry" />
        </mxCell>
        <mxCell id="3n6C1vs2EIXXNCvUCeNO-19" value="&lt;font style=&quot;font-size: 24px;&quot;&gt;||&lt;/font&gt;" style="text;html=1;strokeColor=none;fillColor=none;align=center;verticalAlign=middle;whiteSpace=wrap;rounded=0;" vertex="1" parent="1">
          <mxGeometry x="470" y="330" width="60" height="30" as="geometry" />
        </mxCell>
        <mxCell id="3n6C1vs2EIXXNCvUCeNO-20" value="&lt;font style=&quot;font-size: 24px;&quot;&gt;||&lt;/font&gt;" style="text;html=1;strokeColor=none;fillColor=none;align=center;verticalAlign=middle;whiteSpace=wrap;rounded=0;" vertex="1" parent="1">
          <mxGeometry x="590" y="330" width="60" height="30" as="geometry" />
        </mxCell>
        <mxCell id="3n6C1vs2EIXXNCvUCeNO-21" value="&lt;font style=&quot;font-size: 38px;&quot;&gt;...&lt;/font&gt;" style="text;html=1;strokeColor=none;fillColor=none;align=center;verticalAlign=middle;whiteSpace=wrap;rounded=0;" vertex="1" parent="1">
          <mxGeometry x="530" y="320" width="60" height="30" as="geometry" />
        </mxCell>
        <mxCell id="3n6C1vs2EIXXNCvUCeNO-22" value="" style="endArrow=classic;html=1;rounded=0;entryX=0.5;entryY=1;entryDx=0;entryDy=0;" edge="1" parent="1" target="3n6C1vs2EIXXNCvUCeNO-1">
          <mxGeometry width="50" height="50" relative="1" as="geometry">
            <mxPoint x="200" y="320" as="sourcePoint" />
            <mxPoint x="280" y="300" as="targetPoint" />
          </mxGeometry>
        </mxCell>
        <mxCell id="3n6C1vs2EIXXNCvUCeNO-23" value="" style="endArrow=classic;html=1;rounded=0;entryX=0.5;entryY=1;entryDx=0;entryDy=0;" edge="1" parent="1" target="3n6C1vs2EIXXNCvUCeNO-2">
          <mxGeometry width="50" height="50" relative="1" as="geometry">
            <mxPoint x="320" y="320" as="sourcePoint" />
            <mxPoint x="210" y="290" as="targetPoint" />
          </mxGeometry>
        </mxCell>
        <mxCell id="3n6C1vs2EIXXNCvUCeNO-24" value="k-bit blocks" style="text;html=1;strokeColor=none;fillColor=none;align=center;verticalAlign=middle;whiteSpace=wrap;rounded=0;" vertex="1" parent="1">
          <mxGeometry x="120" y="360" width="90" height="30" as="geometry" />
        </mxCell>
        <mxCell id="3n6C1vs2EIXXNCvUCeNO-25" value="ℓ-bit state s&lt;sub&gt;0&lt;/sub&gt;" style="text;html=1;strokeColor=none;fillColor=none;align=center;verticalAlign=middle;whiteSpace=wrap;rounded=0;" vertex="1" parent="1">
          <mxGeometry x="60" y="160" width="70" height="30" as="geometry" />
        </mxCell>
        <mxCell id="3n6C1vs2EIXXNCvUCeNO-26" value="" style="endArrow=classic;html=1;rounded=0;exitX=1;exitY=0.5;exitDx=0;exitDy=0;" edge="1" parent="1" source="3n6C1vs2EIXXNCvUCeNO-4">
          <mxGeometry width="50" height="50" relative="1" as="geometry">
            <mxPoint x="610" y="350" as="sourcePoint" />
            <mxPoint x="760" y="240" as="targetPoint" />
          </mxGeometry>
        </mxCell>
        <mxCell id="3n6C1vs2EIXXNCvUCeNO-27" value="&lt;div&gt;f&lt;/div&gt;&lt;div&gt;i&lt;/div&gt;&lt;div&gt;n&lt;/div&gt;&lt;div&gt;a&lt;/div&gt;&lt;div&gt;l&lt;/div&gt;" style="rounded=0;whiteSpace=wrap;html=1;align=center;" vertex="1" parent="1">
          <mxGeometry x="760" y="190" width="20" height="100" as="geometry" />
        </mxCell>
        <mxCell id="3n6C1vs2EIXXNCvUCeNO-28" value="final state s&lt;sub&gt;n &lt;/sub&gt;= h(m)" style="text;html=1;strokeColor=none;fillColor=none;align=center;verticalAlign=middle;whiteSpace=wrap;rounded=0;" vertex="1" parent="1">
          <mxGeometry x="660" y="160" width="120" height="30" as="geometry" />
        </mxCell>
      </root>
    </mxGraphModel>
  </diagram>
</mxfile>
